<?xml version="1.0" encoding="UTF-8"?>
<svg version="1.1" xmlns="http://www.w3.org/2000/svg" width="647" height="230">
<path d="M0 0 C213.51 0 427.02 0 647 0 C647 75.9 647 151.8 647 230 C433.49 230 219.98 230 0 230 C0 154.1 0 78.2 0 0 Z " fill="#FDCD3E" transform="translate(0,0)"/>
<path d="M0 0 C8.58 0 17.16 0 26 0 C26.94875 2.825625 27.8975 5.65125 28.875 8.5625 C29.17003418 9.43849854 29.46506836 10.31449707 29.76904297 11.21704102 C30.9683876 14.8025227 32.11473363 18.36865477 33.0703125 22.02734375 C33.37710938 23.00832031 33.68390625 23.98929688 34 25 C34.66 25.33 35.32 25.66 36 26 C36.26554687 25.04996094 36.53109375 24.09992188 36.8046875 23.12109375 C38.15197499 18.40558755 39.63953121 13.73592598 41.125 9.0625 C42.07375 6.071875 43.0225 3.08125 44 0 C51.59 0 59.18 0 67 0 C67.94875 2.990625 68.8975 5.98125 69.875 9.0625 C70.17003418 9.99070557 70.46506836 10.91891113 70.76904297 11.87524414 C72.25327139 16.56494495 73.67583274 21.26256664 75 26 C75.66 26 76.32 26 77 26 C77.15855469 25.29617187 77.31710937 24.59234375 77.48046875 23.8671875 C79.42522316 15.63690088 82.06902286 7.92155983 85 0 C93.58 0 102.16 0 111 0 C93.76802326 48.95813953 93.76802326 48.95813953 86 67 C80.06 67 74.12 67 68 67 C62.06 50.17 62.06 50.17 56 33 C53.33451214 35.66548786 52.56634426 38.69782324 51.3984375 42.1953125 C51.0364476 43.25647781 51.0364476 43.25647781 50.66714478 44.33908081 C49.8975691 46.59922012 49.13620305 48.86202877 48.375 51.125 C47.85470493 52.65773491 47.33387808 54.1902894 46.8125 55.72265625 C45.53447306 59.47940422 44.26758144 63.2396497 43 67 C37.06 67 31.12 67 25 67 C21.68891889 59.16734282 18.55932205 51.30799433 15.64453125 43.3203125 C15.25682053 42.26391571 14.8691098 41.20751892 14.46965027 40.11911011 C13.65928223 37.9096101 12.85015542 35.69965447 12.04223633 33.48925781 C10.80760687 30.1116136 9.56917126 26.73538395 8.33007812 23.359375 C7.5388426 21.20060142 6.74781942 19.04174999 5.95703125 16.8828125 C5.58931107 15.87960968 5.22159088 14.87640686 4.84272766 13.84280396 C4.49864365 12.9009726 4.15455963 11.95914124 3.80004883 10.98876953 C3.3496801 9.75732712 3.3496801 9.75732712 2.89021301 8.50100708 C1.8865746 5.68133724 0.94645803 2.8393741 0 0 Z " fill="#010100" transform="translate(376,93)"/>
<path d="M0 0 C6.001875 -0.0825 12.00375 -0.165 18.1875 -0.25 C20.05301514 -0.28641602 21.91853027 -0.32283203 23.84057617 -0.36035156 C35.8194549 -0.49635582 47.6505463 0.16551557 57.2890625 8.23828125 C64.03419939 15.18361627 68.07849353 23.20147645 68.375 32.875 C68.05860613 43.35554681 64.73980924 52.34659649 57.18359375 59.7890625 C49.51728061 66.07698803 40.71552088 67.47073256 31.0546875 67.29296875 C30.25877197 67.28994751 29.46285645 67.28692627 28.64282227 67.28381348 C25.72007954 67.26832782 22.79752425 67.22644708 19.875 67.1875 C13.31625 67.125625 6.7575 67.06375 0 67 C0 44.89 0 22.78 0 0 Z " fill="#010100" transform="translate(228,93)"/>
<path d="M0 0 C21 0 21 0 28.625 6.75 C30.54443359 8.97875977 30.54443359 8.97875977 31.8984375 10.87890625 C34.76849454 14.75465581 37.91355254 18.21300027 41.25 21.6875 C44.03222663 24.66316546 46.40964892 27.22733384 48 31 C48.66 31 49.32 31 50 31 C50 20.77 50 10.54 50 0 C57.92 0 65.84 0 74 0 C74 22.11 74 44.22 74 67 C52 67 52 67 45.875 61.8125 C44.43457031 60.05737305 44.43457031 60.05737305 43.453125 58.51171875 C40.86417478 54.68927283 37.81004541 51.45420245 34.625 48.125 C33.65560653 47.08896672 32.68932845 46.05000748 31.7265625 45.0078125 C31.32002441 44.57098145 30.91348633 44.13415039 30.49462891 43.68408203 C28.26849812 41.1757759 26.14698205 38.57637846 24 36 C23.67 46.23 23.34 56.46 23 67 C15.41 67 7.82 67 0 67 C0 44.89 0 22.78 0 0 Z " fill="#020200" transform="translate(493,93)"/>
<path d="M0 0 C6.90877696 4.04008065 12.60625606 10.44780981 15.5 17.9375 C17.74758488 26.9438937 17.95349699 38.21929048 13.88671875 46.6953125 C8.41971184 55.53492367 1.77334844 60.35435652 -7.6875 64.25 C-19.73668489 66.42280383 -30.63335939 65.23015683 -40.8125 58.1875 C-47.59299767 52.65750395 -52.46791862 45.5497668 -53.83374023 36.79931641 C-54.75173965 25.15376289 -53.11255443 16.3116591 -45.89453125 6.828125 C-34.3304412 -6.02696798 -14.91392006 -7.33057088 0 0 Z " fill="#030200" transform="translate(355.5,96.0625)"/>
<path d="M0 0 C6.90877696 4.04008065 12.60625606 10.44780981 15.5 17.9375 C17.74758488 26.9438937 17.95349699 38.21929048 13.88671875 46.6953125 C8.41971184 55.53492367 1.77334844 60.35435652 -7.6875 64.25 C-19.73668489 66.42280383 -30.63335939 65.23015683 -40.8125 58.1875 C-47.59299767 52.65750395 -52.46791862 45.5497668 -53.83374023 36.79931641 C-54.75173965 25.15376289 -53.11255443 16.3116591 -45.89453125 6.828125 C-34.3304412 -6.02696798 -14.91392006 -7.33057088 0 0 Z " fill="#030200" transform="translate(202.5,96.0625)"/>
<path d="M0 0 C0.74024414 0.00531738 1.48048828 0.01063477 2.24316406 0.01611328 C9.93367417 0.14894019 16.47046536 1.38818615 23.625 4.25 C23.625 9.86 23.625 15.47 23.625 21.25 C14.875 18.375 14.875 18.375 12.625 17.25 C5.44493914 16.72781376 -1.1500901 16.35943131 -7.375 20.25 C-11.56477924 24.36300318 -13.52800115 27.57715275 -13.625 33.4375 C-13.56458602 38.5659754 -12.98939582 41.83257257 -10.375 46.25 C-6.34803291 49.98231096 -3.64028823 51.32875618 1.75 51.8125 C2.66007812 51.89628906 3.57015625 51.98007813 4.5078125 52.06640625 C5.20648438 52.12699219 5.90515625 52.18757813 6.625 52.25 C6.625 49.61 6.625 46.97 6.625 44.25 C4.315 44.25 2.005 44.25 -0.375 44.25 C-0.375 39.63 -0.375 35.01 -0.375 30.25 C7.875 30.25 16.125 30.25 24.625 30.25 C24.625 42.13 24.625 54.01 24.625 66.25 C9.50328902 69.73962561 9.50328902 69.73962561 2.4375 69.5625 C1.66921875 69.55049561 0.9009375 69.53849121 0.109375 69.52612305 C-11.71083191 69.2323679 -22.30140662 66.91787751 -30.75 58.0625 C-38.07923197 48.9973973 -39.71809661 39.70927141 -38.69287109 28.29492188 C-37.38215575 19.86285451 -32.06412001 12.35557323 -25.375 7.25 C-17.40941048 1.87250816 -9.51143371 -0.12406218 0 0 Z " fill="#020200" transform="translate(116.375,91.75)"/>
<path d="M0 0 C21.91011236 8.91011236 21.91011236 8.91011236 27 14 C17.58997722 18.40774487 17.58997722 18.40774487 13 19 C13 19.66 13 20.32 13 21 C12.40832031 21.25394531 11.81664062 21.50789063 11.20703125 21.76953125 C3.49732654 24.56437698 3.49732654 24.56437698 -2 30 C-2.66 30 -3.32 30 -4 30 C-3.01 25.545 -3.01 25.545 -2 21 C-9.34510537 22.71906721 -16.48074766 24.73538009 -23.6015625 27.23046875 C-26 28 -26 28 -28 28 C-28 28.66 -28 29.32 -28 30 C-28.99 30 -29.98 30 -31 30 C-31 30.66 -31 31.32 -31 32 C-31.55945313 32.24492188 -32.11890625 32.48984375 -32.6953125 32.7421875 C-38.28159355 35.34672368 -43.30695463 38.43217541 -48.3125 42 C-48.89854004 42.41491699 -49.48458008 42.82983398 -50.08837891 43.25732422 C-53.72552474 45.89676994 -56.89550687 48.73071357 -60 52 C-60.57105469 52.59683594 -61.14210938 53.19367188 -61.73046875 53.80859375 C-67.19760832 59.92065059 -68.27825813 64.93051426 -68 73 C-68.99 73 -69.98 73 -71 73 C-72.27563384 70.44873232 -72.20373295 68.53677914 -72.25 65.6875 C-72.27578125 64.74261719 -72.3015625 63.79773438 -72.328125 62.82421875 C-71.6533406 57.01625298 -67.4049208 52.77131508 -63.875 48.3125 C-63.39216553 47.70108154 -62.90933105 47.08966309 -62.41186523 46.4597168 C-50.69071694 31.74232951 -50.69071694 31.74232951 -45 28 C-44.34 28 -43.68 28 -43 28 C-42.67 27.01 -42.34 26.02 -42 25 C-39.61663097 22.93615782 -36.90483939 21.31951774 -34.25 19.625 C-33.4873584 19.13402832 -32.7247168 18.64305664 -31.93896484 18.13720703 C-25.54929024 14.13148038 -19.20355538 11.28297294 -12 9 C-11.01 8.67 -10.02 8.34 -9 8 C-7.27204648 7.93197033 -5.54164635 7.91504355 -3.8125 7.9375 C-2.91144531 7.94652344 -2.01039063 7.95554687 -1.08203125 7.96484375 C-0.39496094 7.97644531 0.29210937 7.98804688 1 8 C0.505 4.04 0.505 4.04 0 0 Z " fill="#372E1E" transform="translate(137,44)"/>
<path d="M0 0 C4.03365325 1.29674482 7.92055759 2.76505888 11.8125 4.4375 C16.81562346 6.54868069 21.82440815 8.36106258 27 10 C24.56286163 11.62475891 22.77075224 12.56152197 20.0859375 13.55078125 C19.32869385 13.83493896 18.5714502 14.11909668 17.79125977 14.41186523 C16.59521118 14.85767944 16.59521118 14.85767944 15.375 15.3125 C9.51465421 17.53029008 3.95582205 19.80553402 -1.37109375 23.15234375 C-3 24 -3 24 -6 24 C-6 24.66 -6 25.32 -6 26 C-7.62249941 26.83819158 -9.24808497 27.6704116 -10.875 28.5 C-11.77992187 28.9640625 -12.68484375 29.428125 -13.6171875 29.90625 C-16 31 -16 31 -18 31 C-18 31.66 -18 32.32 -18 33 C-18.66 33 -19.32 33 -20 33 C-20 33.66 -20 34.32 -20 35 C-21.57421875 36.296875 -21.57421875 36.296875 -23.6875 37.75 C-26.48074889 39.75718416 -28.74334395 41.67362206 -30.875 44.375 C-31.57625 45.24125 -32.2775 46.1075 -33 47 C-33.66 47 -34.32 47 -35 47 C-35 47.66 -35 48.32 -35 49 C-35.97648017 50.02297922 -36.98131338 51.01904252 -38 52 C-44.19002041 59.22169048 -44.4063689 65.83412362 -44 75 C-44.99 74.67 -45.98 74.34 -47 74 C-48.2725615 71.45487699 -48.16808347 69.59258049 -48.1875 66.75 C-48.20167969 65.81671875 -48.21585938 64.8834375 -48.23046875 63.921875 C-47.76232907 57.98681599 -45.21337443 53.27612397 -42.375 48.125 C-41.74335937 46.97257812 -41.11171875 45.82015625 -40.4609375 44.6328125 C-39.97882813 43.76398438 -39.49671875 42.89515625 -39 42 C-38.34 42 -37.68 42 -37 42 C-36.62875 40.948125 -36.62875 40.948125 -36.25 39.875 C-34.32310905 35.44315081 -31.78497682 31.09679922 -28 28 C-27.34 28 -26.68 28 -26 28 C-26 27.34 -26 26.68 -26 26 C-21.52941176 22 -21.52941176 22 -19 22 C-19 21.34 -19 20.68 -19 20 C-18.34 20 -17.68 20 -17 20 C-17 19.34 -17 18.68 -17 18 C-10.56609623 12.81373536 -4.19840081 9.87141354 4 9 C3.34 7.88625 2.68 6.7725 2 5.625 C0 2.25 0 2.25 0 0 Z " fill="#2C261D" transform="translate(107,32)"/>
<path d="M0 0 C10.9 0 10.9 0 16 3 C21.09491824 9.3016094 21.63173549 15.12760391 21 23 C19.78933758 27.61565047 18.2498596 30.18027831 14.4375 32.9375 C10 35 10 35 0 35 C0 23.45 0 11.9 0 0 Z " fill="#F3C53B" transform="translate(251,109)"/>
<path d="M0 0 C3.70544963 1.68429529 5.91811247 3.51650368 8 7 C8.76235797 12.70051453 9.43680772 19.68637667 6.25 24.75 C2.90804875 28.09195125 1.28473741 28.85984683 -3.4375 29.375 C-7.64801951 28.93178742 -9.11525013 28.04959272 -12 25 C-14.83867914 19.26266963 -14.79326189 13.25970024 -14 7 C-10.90988662 0.69341173 -6.65678684 -0.45130758 0 0 Z " fill="#FACB3C" transform="translate(340,112)"/>
<path d="M0 0 C3.70544963 1.68429529 5.91811247 3.51650368 8 7 C8.76235797 12.70051453 9.43680772 19.68637667 6.25 24.75 C2.90804875 28.09195125 1.28473741 28.85984683 -3.4375 29.375 C-7.64801951 28.93178742 -9.11525013 28.04959272 -12 25 C-14.83867914 19.26266963 -14.79326189 13.25970024 -14 7 C-10.90988662 0.69341173 -6.65678684 -0.45130758 0 0 Z " fill="#FACB3C" transform="translate(187,112)"/>
<path d="M0 0 C3.62763593 2.62424727 4.83514312 3.99254127 5.5625 8.4375 C4.88287659 12.74178162 4.0141089 14.83518565 1 18 C-1.7334301 19.07282851 -4.08660248 19.36417469 -7 19 C-9.85993478 17.23535939 -11.49782849 16.00434303 -13 13 C-13.5811138 5.91041162 -13.5811138 5.91041162 -11.125 2.0625 C-7.33038049 -1.62051305 -5.08506657 -1.20662597 0 0 Z " fill="#F2C43B" transform="translate(495,174)"/>
<path d="M0 0 C0.90757496 3.28123254 1.06485922 5.7413336 0 9 C-3.04027118 11.71265575 -6.19118597 13.76487439 -9.66796875 15.859375 C-12.94837243 17.96683246 -15.35647175 20.15207524 -18 23 C-18.85658203 23.89525391 -18.85658203 23.89525391 -19.73046875 24.80859375 C-25.19760832 30.92065059 -26.27825813 35.93051426 -26 44 C-26.99 44 -27.98 44 -29 44 C-30.27563384 41.44873232 -30.20373295 39.53677914 -30.25 36.6875 C-30.27578125 35.74261719 -30.3015625 34.79773438 -30.328125 33.82421875 C-29.6533969 28.01673761 -25.40540029 23.7705341 -21.875 19.3125 C-21.39144043 18.70180664 -20.90788086 18.09111328 -20.40966797 17.46191406 C-6.47398118 0 -6.47398118 0 0 0 Z " fill="#2D271D" transform="translate(95,73)"/>
<path d="M0 0 C1.32 0 2.64 0 4 0 C6.31 5.28 8.62 10.56 11 16 C14.63 11.38 18.26 6.76 22 2 C19.03 2 16.06 2 13 2 C13 1.34 13 0.68 13 0 C17.29 0 21.58 0 26 0 C24.88641178 4.45435288 23.37021376 6.28031048 20.4375 9.75 C19.61121094 10.73484375 18.78492188 11.7196875 17.93359375 12.734375 C17.29550781 13.48203125 16.65742188 14.2296875 16 15 C21.445 15.495 21.445 15.495 27 16 C27 16.99 27 17.98 27 19 C20.73 19 14.46 19 8 19 C7.34 17.35 6.68 15.7 6 14 C3.36 13.67 0.72 13.34 -2 13 C-2.66 14.65 -3.32 16.3 -4 18 C-4.66 18 -5.32 18 -6 18 C-4.23536928 11.89262558 -2.30442525 5.92566493 0 0 Z " fill="#1C1709" transform="translate(138,174)"/>
<path d="M0 0 C10.18532553 -0.60626938 10.18532553 -0.60626938 13.6875 2 C15.69707845 6.59332218 15.85548391 10.61686626 14.125 15.4375 C13 17 13 17 11 18 C7.32984725 18.1377685 3.67388652 18.04271961 0 18 C0 12.06 0 6.12 0 0 Z " fill="#F9CA3C" transform="translate(282,174)"/>
<path d="M0 0 C1.03211289 0.96682107 2.03573014 1.9655032 3 3 C5.59915538 4.19027984 5.59915538 4.19027984 8 5 C2.82163272 11.0213573 -6.43738531 12.42923663 -14 13 C-14.19627391 11.41773035 -14.38165538 9.83410729 -14.5625 8.25 C-14.66691406 7.36828125 -14.77132812 6.4865625 -14.87890625 5.578125 C-14.99456676 3.11567549 -14.73638695 1.33461936 -14 -1 C-9.21444098 -2.54372872 -4.63897137 -1.70269361 0 0 Z " fill="#221E1E" transform="translate(156,52)"/>
<path d="M0 0 C11.4748924 -0.37015782 11.4748924 -0.37015782 13.90625 1.34375 C15 3 15 3 14.6875 5.6875 C14.460625 6.450625 14.23375 7.21375 14 8 C12.68 8.33 11.36 8.66 10 9 C10.433125 9.55429688 10.86625 10.10859375 11.3125 10.6796875 C12.1478125 11.76636719 12.1478125 11.76636719 13 12.875 C13.556875 13.59429687 14.11375 14.31359375 14.6875 15.0546875 C16 17 16 17 16 19 C14.25 18.875 14.25 18.875 12 18 C11.38125 17.030625 10.7625 16.06125 10.125 15.0625 C7.6611838 11.51170606 6.12759384 10.93808951 2 10 C2 12.64 2 15.28 2 18 C1.34 18 0.68 18 0 18 C0 12.06 0 6.12 0 0 Z " fill="#0A0803" transform="translate(427,174)"/>
<path d="M0 0 C11.4748924 -0.37015782 11.4748924 -0.37015782 13.90625 1.34375 C15 3 15 3 14.6875 5.6875 C14.460625 6.450625 14.23375 7.21375 14 8 C12.68 8.33 11.36 8.66 10 9 C10.433125 9.55429688 10.86625 10.10859375 11.3125 10.6796875 C12.1478125 11.76636719 12.1478125 11.76636719 13 12.875 C13.556875 13.59429687 14.11375 14.31359375 14.6875 15.0546875 C16 17 16 17 16 19 C14.25 18.875 14.25 18.875 12 18 C11.38125 17.030625 10.7625 16.06125 10.125 15.0625 C7.6611838 11.51170606 6.12759384 10.93808951 2 10 C2 12.64 2 15.28 2 18 C1.34 18 0.68 18 0 18 C0 12.06 0 6.12 0 0 Z " fill="#0A0803" transform="translate(301,174)"/>
<path d="M0 0 C1.98244892 0.78341119 3.96088859 1.57697486 5.9375 2.375 C7.03964844 2.81585938 8.14179688 3.25671875 9.27734375 3.7109375 C12 5 12 5 13 7 C10.36 7.33 7.72 7.66 5 8 C4.97287934 9.43739513 4.95354933 10.87493863 4.9375 12.3125 C4.92589844 13.11300781 4.91429687 13.91351563 4.90234375 14.73828125 C4.90342145 17.16861334 4.90342145 17.16861334 6 20 C8.31 20 10.62 20 13 20 C10.55799529 22.05128396 8.48424833 23.21182658 5.5 24.4375 C2.11891338 25.94691367 0.47479606 27.34188571 -2 30 C-2.66 30 -3.32 30 -4 30 C-3.34 27.03 -2.68 24.06 -2 21 C-2.66 21 -3.32 21 -4 21 C-3.67 20.01 -3.34 19.02 -3 18 C-1.35 18.33 0.3 18.66 2 19 C1.67 16.03 1.34 13.06 1 10 C-3.29 10 -7.58 10 -12 10 C-8.68629 7.79086 -7.6553979 7.77518447 -3.8125 7.875 C-2.91144531 7.89304687 -2.01039063 7.91109375 -1.08203125 7.9296875 C-0.39496094 7.95289063 0.29210937 7.97609375 1 8 C0.67 5.36 0.34 2.72 0 0 Z " fill="#342C1D" transform="translate(137,44)"/>
<path d="M0 0 C0.66 0 1.32 0 2 0 C2.20496094 0.71027344 2.40992188 1.42054688 2.62109375 2.15234375 C2.89050781 3.07144531 3.15992188 3.99054688 3.4375 4.9375 C3.70433594 5.85402344 3.97117187 6.77054688 4.24609375 7.71484375 C4.79026051 9.9402493 4.79026051 9.9402493 6 11 C6.17015625 10.28972656 6.3403125 9.57945312 6.515625 8.84765625 C6.75796875 7.92855469 7.0003125 7.00945312 7.25 6.0625 C7.59804688 4.68771484 7.59804688 4.68771484 7.953125 3.28515625 C9 1 9 1 11.109375 0.18359375 C11.73328125 0.12300781 12.3571875 0.06242188 13 0 C13.48198463 1.24891614 13.96045677 2.49918808 14.4375 3.75 C14.83775391 4.79414063 14.83775391 4.79414063 15.24609375 5.859375 C15.96146693 7.89059003 16.51365652 9.9035291 17 12 C17.28875 10.948125 17.5775 9.89625 17.875 8.8125 C18.77225193 5.77181289 19.76423419 2.91287656 21 0 C21.66 0 22.32 0 23 0 C22.05542371 6.76761128 21.06997835 12.8600433 18 19 C17.34 19 16.68 19 16 19 C15.80664062 18.32453125 15.61328125 17.6490625 15.4140625 16.953125 C15.02347656 15.61507812 15.02347656 15.61507812 14.625 14.25 C14.36976563 13.36828125 14.11453125 12.4865625 13.8515625 11.578125 C13.0790066 9.23919428 12.16374324 7.16557438 11 5 C10.79503906 5.77085937 10.59007812 6.54171875 10.37890625 7.3359375 C10.10949219 8.33882812 9.84007812 9.34171875 9.5625 10.375 C9.29566406 11.37273437 9.02882813 12.37046875 8.75390625 13.3984375 C8 16 8 16 7 18 C6.01 18 5.02 18 4 18 C3.32451422 15.94037148 2.65995688 13.87715678 2 11.8125 C1.62875 10.66394531 1.2575 9.51539063 0.875 8.33203125 C0.09369447 5.35679188 -0.18363306 3.04716104 0 0 Z " fill="#2C240D" transform="translate(383,174)"/>
<path d="M0 0 C1.32 0 2.64 0 4 0 C4.27714844 0.85464844 4.55429688 1.70929688 4.83984375 2.58984375 C5.20207031 3.69457031 5.56429687 4.79929688 5.9375 5.9375 C6.29714844 7.03964844 6.65679687 8.14179688 7.02734375 9.27734375 C7.73856668 11.88123475 7.73856668 11.88123475 9 13 C9.24234375 12.14535156 9.4846875 11.29070312 9.734375 10.41015625 C10.23710938 8.75306641 10.23710938 8.75306641 10.75 7.0625 C11.07484375 5.96035156 11.3996875 4.85820312 11.734375 3.72265625 C12.15203125 2.82417969 12.5696875 1.92570313 13 1 C14.32 0.67 15.64 0.34 17 0 C17 6.27 17 12.54 17 19 C16.34 19 15.68 19 15 19 C14.67 15.04 14.34 11.08 14 7 C12.68 10.63 11.36 14.26 10 18 C8.68 17.67 7.36 17.34 6 17 C5.01 13.37 4.02 9.74 3 6 C2.67 9.96 2.34 13.92 2 18 C1.34 18 0.68 18 0 18 C0 12.06 0 6.12 0 0 Z " fill="#241E0A" transform="translate(112,174)"/>
<path d="M0 0 C1.32 0 2.64 0 4 0 C5.65 4.29 7.3 8.58 9 13 C9.639375 11.411875 10.27875 9.82375 10.9375 8.1875 C11.29714844 7.29417969 11.65679687 6.40085938 12.02734375 5.48046875 C12.73613486 3.6729091 13.3860247 1.84192591 14 0 C15.32 0 16.64 0 18 0 C18 5.94 18 11.88 18 18 C17.34 18 16.68 18 16 18 C15.67 13.71 15.34 9.42 15 5 C13.68 8.96 12.36 12.92 11 17 C9.68 17 8.36 17 7 17 C5.68 13.04 4.36 9.08 3 5 C2.67 9.29 2.34 13.58 2 18 C1.34 18 0.68 18 0 18 C0 12.06 0 6.12 0 0 Z " fill="#1F1A0B" transform="translate(355,174)"/>
<path d="M0 0 C0.99 0.99 1.98 1.98 3 3 C3.99 2.34 4.98 1.68 6 1 C6.33 1.66 6.66 2.32 7 3 C6.67 3.66 6.34 4.32 6 5 C5.34 5 4.68 5 4 5 C4 5.66 4 6.32 4 7 C3.02351983 8.02297922 2.01868662 9.01904252 1 10 C-5.19002041 17.22169048 -5.4063689 23.83412362 -5 33 C-5.99 32.67 -6.98 32.34 -8 32 C-9.2725615 29.45487699 -9.16808347 27.59258049 -9.1875 24.75 C-9.20167969 23.81671875 -9.21585938 22.8834375 -9.23046875 21.921875 C-8.76232907 15.98681599 -6.21337443 11.27612397 -3.375 6.125 C-2.74335937 4.97257812 -2.11171875 3.82015625 -1.4609375 2.6328125 C-0.97882813 1.76398438 -0.49671875 0.89515625 0 0 Z " fill="#2B251D" transform="translate(68,74)"/>
<path d="M0 0 C1.21236328 0.01353516 1.21236328 0.01353516 2.44921875 0.02734375 C3.37154297 0.04474609 3.37154297 0.04474609 4.3125 0.0625 C6.74107143 7.49107143 6.74107143 7.49107143 5.3125 11.0625 C3.6625 10.7325 2.0125 10.4025 0.3125 10.0625 C-0.0175 10.7225 -0.3475 11.3825 -0.6875 12.0625 C-2.6675 12.0625 -4.6475 12.0625 -6.6875 12.0625 C-7.89022819 9.65704362 -7.78821472 8.11253047 -7.75 5.4375 C-7.74097656 4.62023438 -7.73195313 3.80296875 -7.72265625 2.9609375 C-7.71105469 2.33445313 -7.69945313 1.70796875 -7.6875 1.0625 C-4.80538698 0.10179566 -2.98899956 -0.04331883 0 0 Z " fill="#231F1D" transform="translate(133.6875,52.9375)"/>
<path d="M0 0 C2.875 1.875 2.875 1.875 5 4 C5 4.66 5 5.32 5 6 C4.01 6 3.02 6 2 6 C1.67 5.34 1.34 4.68 1 4 C-1.97 4 -4.94 4 -8 4 C-8.02698189 5.62490954 -8.04638757 7.24994633 -8.0625 8.875 C-8.07410156 9.77992188 -8.08570313 10.68484375 -8.09765625 11.6171875 C-8.16249257 14.0168585 -8.16249257 14.0168585 -7 16 C-4.03 16 -1.06 16 2 16 C2.33 14.68 2.66 13.36 3 12 C1.02 12 -0.96 12 -3 12 C-3 11.34 -3 10.68 -3 10 C-0.36 10 2.28 10 5 10 C5.3125 13.3125 5.3125 13.3125 5 17 C2.36527459 19.40224964 0.50799736 19.92591705 -3 20.4375 C-6.72413693 19.8943967 -8.32854076 18.59513183 -11 16 C-12.60086627 12.79826746 -12.49917089 9.47422941 -12 6 C-8.65421837 0.75827545 -6.19002146 -0.60686485 0 0 Z " fill="#221C09" transform="translate(205,173)"/>
<path d="M0 0 C1.796875 0.0703125 1.796875 0.0703125 4 1 C5.29263816 3.31844734 6.29169071 5.4254441 7.25 7.875 C7.518125 8.51308594 7.78625 9.15117187 8.0625 9.80859375 C9.24194665 12.69101695 10 14.85851645 10 18 C9.01 17.67 8.02 17.34 7 17 C6.67 15.68 6.34 14.36 6 13 C3.03 13 0.06 13 -3 13 C-3.33 14.98 -3.66 16.96 -4 19 C-4.99 19 -5.98 19 -7 19 C-5.17778624 12.38757278 -2.94776396 6.19479329 0 0 Z " fill="#1D1808" transform="translate(414,174)"/>
<path d="M0 0 C1.796875 0.0703125 1.796875 0.0703125 4 1 C5.29263816 3.31844734 6.29169071 5.4254441 7.25 7.875 C7.518125 8.51308594 7.78625 9.15117187 8.0625 9.80859375 C9.24194665 12.69101695 10 14.85851645 10 18 C9.01 17.67 8.02 17.34 7 17 C6.67 15.68 6.34 14.36 6 13 C3.03 13 0.06 13 -3 13 C-3.33 14.98 -3.66 16.96 -4 19 C-4.99 19 -5.98 19 -7 19 C-5.17778624 12.38757278 -2.94776396 6.19479329 0 0 Z " fill="#1A1507" transform="translate(99,174)"/>
<path d="M0 0 C1.32 0 2.64 0 4 0 C6.31 5.61 8.62 11.22 11 17 C10.01 17.33 9.02 17.66 8 18 C7.835 17.360625 7.67 16.72125 7.5 16.0625 C6.218214 13.83880759 6.218214 13.83880759 4.0859375 13.51171875 C2.06424845 13.2724022 0.03158061 13.13106972 -2 13 C-2.66 14.65 -3.32 16.3 -4 18 C-4.66 18 -5.32 18 -6 18 C-5.31583566 13.82423832 -3.98634991 10.11919593 -2.4375 6.1875 C-1.75494141 4.44533203 -1.75494141 4.44533203 -1.05859375 2.66796875 C-0.70925781 1.78753906 -0.35992187 0.90710938 0 0 Z " fill="#141006" transform="translate(342,174)"/>
<path d="M0 0 C-0.66 0.66 -1.32 1.32 -2 2 C-2.99 2 -3.98 2 -5 2 C-5.185625 2.845625 -5.37125 3.69125 -5.5625 4.5625 C-7.4271036 9.02133471 -10.23350816 11.99746641 -14 15 C-14.66 15 -15.32 15 -16 15 C-16.66 15.66 -17.32 16.32 -18 17 C-18.99 16.67 -19.98 16.34 -21 16 C-20.45276317 12.62537285 -19.9451 10.91765 -18 8 C-17.01 7.67 -16.02 7.34 -15 7 C-14.195625 6.030625 -13.39125 5.06125 -12.5625 4.0625 C-8.38311672 -0.93237269 -6.33151789 -1.43898134 0 0 Z " fill="#2A241D" transform="translate(90,61)"/>
<path d="M0 0 C2 2 2 2 2 5 C1.34 5 0.68 5 0 5 C-0.33 4.34 -0.66 3.68 -1 3 C-3.32156597 2.59270772 -5.6568787 2.25561323 -8 2 C-7.80362194 3.96600775 -7.80362194 3.96600775 -7 6 C-5.21693588 7.06039988 -5.21693588 7.06039988 -3.0625 7.625 C-0.24747904 8.49351826 0.86379137 8.86379137 3 11 C3.375 13.4375 3.375 13.4375 3 16 C0.7852664 18.47027978 -0.65621635 18.94879818 -3.9375 19.4375 C-7.72333678 18.89666617 -9.35565688 17.72211792 -12 15 C-12 14.01 -12 13.02 -12 12 C-11.01 12 -10.02 12 -9 12 C-8.67 12.99 -8.34 13.98 -8 15 C-5.36 15 -2.72 15 0 15 C0 14.01 0 13.02 0 12 C-0.62648438 11.80664062 -1.25296875 11.61328125 -1.8984375 11.4140625 C-2.71570313 11.15367187 -3.53296875 10.89328125 -4.375 10.625 C-5.59316406 10.24214844 -5.59316406 10.24214844 -6.8359375 9.8515625 C-9 9 -9 9 -11 7 C-11.375 4.5625 -11.375 4.5625 -11 2 C-7.75218562 -1.89737726 -4.62190328 -1.11268042 0 0 Z " fill="#221C0A" transform="translate(533,174)"/>
<path d="M0 0 C0.99 0 1.98 0 3 0 C3.33 5.28 3.66 10.56 4 16 C6.31 16 8.62 16 11 16 C11.33 11.05 11.66 6.1 12 1 C12.99 1 13.98 1 15 1 C15.10826289 3.4178712 15.18739789 5.83087556 15.25 8.25 C15.30027344 9.27287109 15.30027344 9.27287109 15.3515625 10.31640625 C15.41839759 13.75841326 15.26198821 15.64232914 13.203125 18.453125 C9.98794888 20.71058909 7.83214687 20.54744955 4 20 C1.796875 18.484375 1.796875 18.484375 0 16 C-0.2906124 13.10550051 -0.38186045 10.62050065 -0.25 7.75 C-0.23195313 7.00492188 -0.21390625 6.25984375 -0.1953125 5.4921875 C-0.14835649 3.66090299 -0.07661652 1.83028351 0 0 Z " fill="#332A0E" transform="translate(503,173)"/>
<path d="M0 0 C3.62763593 2.62424727 4.83514312 3.99254127 5.5625 8.4375 C4.88287659 12.74178162 4.0141089 14.83518565 1 18 C-1.7334301 19.07282851 -4.08660248 19.36417469 -7 19 C-9.85993478 17.23535939 -11.49782849 16.00434303 -13 13 C-13.5811138 5.91041162 -13.5811138 5.91041162 -11.125 2.0625 C-7.33038049 -1.62051305 -5.08506657 -1.20662597 0 0 Z M-9.9375 3.625 C-11.33830596 6.75621331 -11.55506621 8.60021945 -11 12 C-8.9575649 15.04273417 -8.9575649 15.04273417 -6 17 C-3.11662149 17 -1.64527834 16.37826661 0.8125 14.9375 C2.74485395 11.78471197 2.53100784 8.58991215 2 5 C1.10242444 2.85219923 1.10242444 2.85219923 -1 2 C-5.85275921 1.33914827 -5.85275921 1.33914827 -9.9375 3.625 Z " fill="#27200D" transform="translate(495,174)"/>
<path d="M0 0 C0.66 0 1.32 0 2 0 C1.4740625 0.86625 1.4740625 0.86625 0.9375 1.75 C-0.14917407 4.35801776 0.06934867 5.39417629 1 8 C1.99 7.67 2.98 7.34 4 7 C6.33299825 6.96045766 8.66708189 6.95598268 11 7 C9.02433812 8.97566188 7.47662906 9.89579072 5 11.125 C4.29875 11.47820313 3.5975 11.83140625 2.875 12.1953125 C1 13 1 13 -1 13 C-1 13.66 -1 14.32 -1 15 C-1.66 15 -2.32 15 -3 15 C-3 15.66 -3 16.32 -3 17 C-4.98 17.99 -4.98 17.99 -7 19 C-6.1875 16.0625 -6.1875 16.0625 -5 13 C-4.01 12.67 -3.02 12.34 -2 12 C-3.68973726 11.11443256 -3.68973726 11.11443256 -6 11 C-9.86479546 13.12958117 -12.60912756 15.28086509 -15 19 C-15.66 18.67 -16.32 18.34 -17 18 C-15.28032649 14.97009905 -13.70761694 12.23672704 -11 10 C-10.34 10 -9.68 10 -9 10 C-9 9.34 -9 8.68 -9 8 C-4.52941176 4 -4.52941176 4 -2 4 C-2 3.34 -2 2.68 -2 2 C-1.34 2 -0.68 2 0 2 C0 1.34 0 0.68 0 0 Z " fill="#4F411F" transform="translate(90,50)"/>
<path d="M0 0 C4.29 0 8.58 0 13 0 C13 0.66 13 1.32 13 2 C9.37 2 5.74 2 2 2 C2 3.98 2 5.96 2 8 C5.3 8 8.6 8 12 8 C12 8.66 12 9.32 12 10 C8.7 10 5.4 10 2 10 C2 11.98 2 13.96 2 16 C5.96 16 9.92 16 14 16 C14 16.99 14 17.98 14 19 C9.38 19 4.76 19 0 19 C0 12.73 0 6.46 0 0 Z " fill="#1D1808" transform="translate(540,174)"/>
<path d="M0 0 C4.29 0 8.58 0 13 0 C13 0.66 13 1.32 13 2 C9.37 2 5.74 2 2 2 C2 3.98 2 5.96 2 8 C5.3 8 8.6 8 12 8 C12 8.66 12 9.32 12 10 C8.7 10 5.4 10 2 10 C2 11.98 2 13.96 2 16 C5.96 16 9.92 16 14 16 C14 16.99 14 17.98 14 19 C9.38 19 4.76 19 0 19 C0 12.73 0 6.46 0 0 Z " fill="#1D1808" transform="translate(446,174)"/>
<path d="M0 0 C4.29 0 8.58 0 13 0 C13 0.66 13 1.32 13 2 C9.37 2 5.74 2 2 2 C2 3.98 2 5.96 2 8 C5.3 8 8.6 8 12 8 C12 8.66 12 9.32 12 10 C8.7 10 5.4 10 2 10 C2 11.98 2 13.96 2 16 C5.96 16 9.92 16 14 16 C14 16.99 14 17.98 14 19 C9.38 19 4.76 19 0 19 C0 12.73 0 6.46 0 0 Z " fill="#1D1808" transform="translate(320,174)"/>
<path d="M0 0 C4.29 0 8.58 0 13 0 C13 0.66 13 1.32 13 2 C9.37 2 5.74 2 2 2 C2 3.98 2 5.96 2 8 C5.3 8 8.6 8 12 8 C12 8.66 12 9.32 12 10 C8.7 10 5.4 10 2 10 C2 11.98 2 13.96 2 16 C5.96 16 9.92 16 14 16 C14 16.99 14 17.98 14 19 C9.38 19 4.76 19 0 19 C0 12.73 0 6.46 0 0 Z " fill="#1D1808" transform="translate(257,174)"/>
<path d="M0 0 C10.18532553 -0.60626938 10.18532553 -0.60626938 13.6875 2 C15.69707845 6.59332218 15.85548391 10.61686626 14.125 15.4375 C13 17 13 17 11 18 C7.32984725 18.1377685 3.67388652 18.04271961 0 18 C0 12.06 0 6.12 0 0 Z M2 2 C2 6.62 2 11.24 2 16 C6.0100934 16.17864631 6.0100934 16.17864631 10 16 C12.22052862 14.19400239 12.22052862 14.19400239 12.265625 11.6875 C12.26046875 10.800625 12.2553125 9.91375 12.25 9 C12.25515625 8.113125 12.2603125 7.22625 12.265625 6.3125 C12.22052862 3.80599761 12.22052862 3.80599761 10 2 C7.31160615 1.73008094 4.70858064 1.91262643 2 2 Z " fill="#0A0804" transform="translate(282,174)"/>
<path d="M0 0 C0.66 0.33 1.32 0.66 2 1 C2.40729228 3.32156597 2.74438677 5.6568787 3 8 C-0.74525799 11.74525799 -4.98270909 11.68909949 -10 12 C-10.33 9.36 -10.66 6.72 -11 4 C-9.72942818 3.52014033 -8.45853152 3.0411407 -7.1875 2.5625 C-6.47980469 2.29566406 -5.77210937 2.02882812 -5.04296875 1.75390625 C-3.37327604 1.13774814 -1.68842296 0.56280765 0 0 Z " fill="#221E1E" transform="translate(122,56)"/>
<path d="M0 0 C0.99 0 1.98 0 3 0 C5.04296875 2.625 5.04296875 2.625 7.1875 6 C7.55552734 6.57234375 7.92355469 7.1446875 8.30273438 7.734375 C9.21125071 9.15024462 10.10686477 10.57437797 11 12 C11.33 8.04 11.66 4.08 12 0 C12.66 0 13.32 0 14 0 C14 5.94 14 11.88 14 18 C13.01 18 12.02 18 11 18 C8.95703125 15.375 8.95703125 15.375 6.8125 12 C6.44447266 11.42765625 6.07644531 10.8553125 5.69726562 10.265625 C4.78874929 8.84975538 3.89313523 7.42562203 3 6 C2.67 9.96 2.34 13.92 2 18 C1.34 18 0.68 18 0 18 C0 12.06 0 6.12 0 0 Z " fill="#080602" transform="translate(175,174)"/>
<path d="M0 0 C0.66 0 1.32 0 2 0 C2 2.31 2 4.62 2 7 C5.3 7 8.6 7 12 7 C12 4.69 12 2.38 12 0 C12.66 0 13.32 0 14 0 C14 5.94 14 11.88 14 18 C13.34 18 12.68 18 12 18 C12 15.36 12 12.72 12 10 C8.7 10 5.4 10 2 10 C2 12.64 2 15.28 2 18 C1.34 18 0.68 18 0 18 C0 12.06 0 6.12 0 0 Z " fill="#1D1708" transform="translate(464,174)"/>
<path d="M0 0 C0.66 0 1.32 0 2 0 C2 2.31 2 4.62 2 7 C5.3 7 8.6 7 12 7 C12 4.69 12 2.38 12 0 C12.66 0 13.32 0 14 0 C14 5.94 14 11.88 14 18 C13.34 18 12.68 18 12 18 C12 15.36 12 12.72 12 10 C8.7 10 5.4 10 2 10 C2 12.64 2 15.28 2 18 C1.34 18 0.68 18 0 18 C0 12.06 0 6.12 0 0 Z " fill="#1D1808" transform="translate(238,174)"/>
<path d="M0 0 C0.66 0 1.32 0 2 0 C2.33 0.99 2.66 1.98 3 3 C5.31 3 7.62 3 10 3 C7.55799529 5.05128396 5.48424833 6.21182658 2.5 7.4375 C-0.88108662 8.94691367 -2.52520394 10.34188571 -5 13 C-5.66 13 -6.32 13 -7 13 C-6.34 10.03 -5.68 7.06 -5 4 C-5.66 4 -6.32 4 -7 4 C-6.67 3.01 -6.34 2.02 -6 1 C-4.35 1.33 -2.7 1.66 -1 2 C-0.67 1.34 -0.34 0.68 0 0 Z " fill="#4B3E1F" transform="translate(140,61)"/>
<path d="M0 0 C0.66 2.64 1.32 5.28 2 8 C-5.625 11 -5.625 11 -9 11 C-9.66 9.35 -10.32 7.7 -11 6 C-3.6 0 -3.6 0 0 0 Z " fill="#221E1E" transform="translate(100,47)"/>
<path d="M0 0 C4.95 0 9.9 0 15 0 C15 0.66 15 1.32 15 2 C13.02 2 11.04 2 9 2 C9 7.61 9 13.22 9 19 C8.01 19 7.02 19 6 19 C6 13.39 6 7.78 6 2 C4.02 2 2.04 2 0 2 C0 1.34 0 0.68 0 0 Z " fill="#221C0C" transform="translate(220,174)"/>
<path d="M0 0 C0.66 0.33 1.32 0.66 2 1 C1.360625 1.969375 0.72125 2.93875 0.0625 3.9375 C-2.69068729 8.70450273 -3 13.58388663 -3 19 C-3.99 19 -4.98 19 -6 19 C-7.95635231 15.08729537 -7.3696659 10.2758022 -7 6 C-5.5 2.8125 -5.5 2.8125 -4 1 C-2.68 1.33 -1.36 1.66 0 2 C0 1.34 0 0.68 0 0 Z " fill="#51431F" transform="translate(72,98)"/>
<path d="M0 0 C4.29 0 8.58 0 13 0 C11.88641178 4.45435288 10.37021376 6.28031048 7.4375 9.75 C6.19806641 11.22726563 6.19806641 11.22726563 4.93359375 12.734375 C4.29550781 13.48203125 3.65742188 14.2296875 3 15 C2.34 14.67 1.68 14.34 1 14 C2.40976705 10.96147295 4.08870228 8.4060405 6.125 5.75 C6.66382813 5.04359375 7.20265625 4.3371875 7.7578125 3.609375 C8.16773438 3.07828125 8.57765625 2.5471875 9 2 C6.03 2 3.06 2 0 2 C0 1.34 0 0.68 0 0 Z " fill="#161207" transform="translate(151,174)"/>
<path d="M0 0 C0 1.32 0 2.64 0 4 C-0.99 4 -1.98 4 -3 4 C-3 4.66 -3 5.32 -3 6 C-6.37097383 7.49821059 -8.20442119 8 -12 8 C-12.04254356 6.00045254 -12.04080783 3.99958364 -12 2 C-9.38538794 -0.61461206 -3.45000888 0 0 0 Z " fill="#28221D" transform="translate(109,70)"/>
<path d="M0 0 C1.32 0 2.64 0 4 0 C4.99 2.64 5.98 5.28 7 8 C6.34 8 5.68 8 5 8 C5 8.99 5 9.98 5 11 C3.02 11 1.04 11 -1 11 C-2.0257259 6.58937864 -2.03684712 4.07369424 0 0 Z " fill="#211B09" transform="translate(342,174)"/>
<path d="M0 0 C1.32 0 2.64 0 4 0 C4.99 2.64 5.98 5.28 7 8 C6.34 8 5.68 8 5 8 C5 8.99 5 9.98 5 11 C3.02 11 1.04 11 -1 11 C-2.0257259 6.58937864 -2.03684712 4.07369424 0 0 Z " fill="#211B09" transform="translate(138,174)"/>
<path d="M0 0 C2.22189824 2.22189824 2.92598892 4.08482708 4 7 C4.66 6.67 5.32 6.34 6 6 C9 12.625 9 12.625 9 16 C8.01 15.67 7.02 15.34 6 15 C5.3125 12.9375 5.3125 12.9375 5 11 C2.36 11 -0.28 11 -3 11 C-2.01 7.37 -1.02 3.74 0 0 Z " fill="#241E0C" transform="translate(100,176)"/>
<path d="M0 0 C2.22189824 2.22189824 2.92598892 4.08482708 4 7 C4.66 6.67 5.32 6.34 6 6 C9 12.625 9 12.625 9 16 C8.01 15.67 7.02 15.34 6 15 C5.3125 12.9375 5.3125 12.9375 5 11 C2.36 11 -0.28 11 -3 11 C-2.01 7.37 -1.02 3.74 0 0 Z " fill="#251E0B" transform="translate(415,176)"/>
<path d="M0 0 C5.04193826 1.52430692 9.23856995 3.23856995 13 7 C11.56328432 7.64757625 10.12559584 8.29299453 8.6875 8.9375 C7.88699219 9.29714844 7.08648437 9.65679687 6.26171875 10.02734375 C4 11 4 11 1 12 C1 11.34 1 10.68 1 10 C1.66 10 2.32 10 3 10 C3 7.69 3 5.38 3 3 C2.34 3 1.68 3 1 3 C0.67 2.01 0.34 1.02 0 0 Z " fill="#3E341E" transform="translate(151,51)"/>
<path d="M0 0 C2.97 0 5.94 0 9 0 C9.33 1.65 9.66 3.3 10 5 C6.78548731 6.60725635 3.56387464 6.05748185 0 6 C0 4.02 0 2.04 0 0 Z " fill="#F4C63B" transform="translate(429,176)"/>
<path d="M0 0 C2.97 0 5.94 0 9 0 C9.33 1.65 9.66 3.3 10 5 C6.78548731 6.60725635 3.56387464 6.05748185 0 6 C0 4.02 0 2.04 0 0 Z " fill="#F4C63B" transform="translate(303,176)"/>
<path d="M0 0 C2.875 1.875 2.875 1.875 5 4 C5 4.66 5 5.32 5 6 C4.01 6 3.02 6 2 6 C1.67 5.34 1.34 4.68 1 4 C-1.97 4 -4.94 4 -8 4 C-8.33 6.97 -8.66 9.94 -9 13 C-9.33 13 -9.66 13 -10 13 C-10.144375 12.21625 -10.28875 11.4325 -10.4375 10.625 C-10.87798925 8.03578982 -10.87798925 8.03578982 -12 6 C-8.15778408 1.00511931 -6.46499322 -0.63382286 0 0 Z " fill="#3A2F10" transform="translate(205,173)"/>
<path d="M0 0 C0.33 0.66 0.66 1.32 1 2 C4.96 2 8.92 2 13 2 C13 2.99 13 3.98 13 5 C6.73 5 0.46 5 -6 5 C-2 1 -2 1 0 0 Z " fill="#493C13" transform="translate(152,188)"/>
<path d="M0 0 C0.99 0.99 1.98 1.98 3 3 C3.66 2.67 4.32 2.34 5 2 C4.67257813 2.69480469 4.34515625 3.38960938 4.0078125 4.10546875 C2.87337169 7.36368828 2.79943945 9.87449502 2.875 13.3125 C2.90207031 14.91544922 2.90207031 14.91544922 2.9296875 16.55078125 C2.95289063 17.35902344 2.97609375 18.16726562 3 19 C2.01 18.67 1.02 18.34 0 18 C-1.28365387 15.43269226 -1.13275635 13.55347003 -1.125 10.6875 C-1.12757812 9.74261719 -1.13015625 8.79773438 -1.1328125 7.82421875 C-1.005363 5.11404264 -0.60596226 2.64026415 0 0 Z " fill="#635120" transform="translate(60,88)"/>
<path d="M0 0 C0.66 0 1.32 0 2 0 C3.32 4.29 4.64 8.58 6 13 C6.66 12.67 7.32 12.34 8 12 C7.67 13.98 7.34 15.96 7 18 C6.01 18 5.02 18 4 18 C3.32451422 15.94037148 2.65995688 13.87715678 2 11.8125 C1.62875 10.66394531 1.2575 9.51539063 0.875 8.33203125 C0.09369447 5.35679188 -0.18363306 3.04716104 0 0 Z " fill="#28210B" transform="translate(383,174)"/>
<path d="M0 0 C1.32 0 2.64 0 4 0 C4.33 2.64 4.66 5.28 5 8 C4.34 7.34 3.68 6.68 3 6 C2.67 9.96 2.34 13.92 2 18 C1.34 18 0.68 18 0 18 C0 12.06 0 6.12 0 0 Z " fill="#100D05" transform="translate(112,174)"/>
<path d="M0 0 C1.1446875 0.3403125 1.1446875 0.3403125 2.3125 0.6875 C2.3125 1.6775 2.3125 2.6675 2.3125 3.6875 C1.29929687 4.14189453 1.29929687 4.14189453 0.265625 4.60546875 C-4.79381963 6.981653 -8.61697779 8.8025783 -11.6875 13.6875 C-12.3475 13.3575 -13.0075 13.0275 -13.6875 12.6875 C-11.96782649 9.65759905 -10.39511694 6.92422704 -7.6875 4.6875 C-7.0275 4.6875 -6.3675 4.6875 -5.6875 4.6875 C-5.6875 4.0275 -5.6875 3.3675 -5.6875 2.6875 C-3.83710722 0.05799447 -3.27282212 -0.38056071 0 0 Z " fill="#3E331E" transform="translate(86.6875,55.3125)"/>
<path d="M0 0 C1.32 0 2.64 0 4 0 C4 5.94 4 11.88 4 18 C3.34 18 2.68 18 2 18 C1.67 13.71 1.34 9.42 1 5 C0.34 5.66 -0.32 6.32 -1 7 C-0.67 4.69 -0.34 2.38 0 0 Z " fill="#060501" transform="translate(369,174)"/>
<path d="M0 0 C2.06496165 1.84371576 2.89904077 3.21562446 3.25390625 5.97265625 C3.3125 8.125 3.3125 8.125 3 12 C2.34 12.66 1.68 13.32 1 14 C-1.03399104 11.96600896 -0.49952083 8.0060239 -0.71875 5.25 C-0.76200665 3.03334648 -0.76200665 3.03334648 -2 2 C-4.32817964 1.63239269 -6.6618385 1.29758419 -9 1 C-9 0.67 -9 0.34 -9 0 C-5.6764242 -0.83089395 -3.20400046 -1.3884002 0 0 Z " fill="#1A1608" transform="translate(294,175)"/>
<path d="M0 0 C0.33 1.98 0.66 3.96 1 6 C-2.3 6.33 -5.6 6.66 -9 7 C-8.67 5.68 -8.34 4.36 -8 3 C-2 0 -2 0 0 0 Z " fill="#30281E" transform="translate(109,62)"/>
<path d="M0 0 C1.32 0 2.64 0 4 0 C4.33 0.99 4.66 1.98 5 3 C4.01 3 3.02 3 2 3 C2 7.95 2 12.9 2 18 C1.34 18 0.68 18 0 18 C0 12.06 0 6.12 0 0 Z " fill="#030200" transform="translate(355,174)"/>
<path d="M0 0 C0.66 0.66 1.32 1.32 2 2 C3.31747324 2.69748583 4.64914193 3.36959957 6 4 C4.50260417 5.23697917 3.00520833 6.47395833 1.5078125 7.7109375 C0.28948839 8.75250992 -0.86660097 9.86660097 -2 11 C-1.67 9.68 -1.34 8.36 -1 7 C-1.99 6.67 -2.98 6.34 -4 6 C-2.84826645 3.53199953 -1.95216435 1.95216435 0 0 Z " fill="#382F1D" transform="translate(81,83)"/>
<path d="M0 0 C0.99 0 1.98 0 3 0 C3 6.27 3 12.54 3 19 C2.34 19 1.68 19 1 19 C1.01160156 17.96359375 1.02320312 16.9271875 1.03515625 15.859375 C1.04453837 14.48958514 1.05363812 13.11979332 1.0625 11.75 C1.07087891 11.06808594 1.07925781 10.38617188 1.08789062 9.68359375 C1.10428392 6.30657446 1.05628768 3.22708361 0 0 Z " fill="#161204" transform="translate(126,174)"/>
<path d="M0 0 C0.99 0.99 1.98 1.98 3 3 C3.99 2.34 4.98 1.68 6 1 C6.33 1.66 6.66 2.32 7 3 C6.67 3.66 6.34 4.32 6 5 C5.34 5 4.68 5 4 5 C4 5.66 4 6.32 4 7 C2.02 7.33 0.04 7.66 -2 8 C-2.33 7.01 -2.66 6.02 -3 5 C-1.5625 2.3125 -1.5625 2.3125 0 0 Z " fill="#362D1C" transform="translate(68,74)"/>
<path d="M0 0 C2.64 0 5.28 0 8 0 C8.125 3.375 8.125 3.375 8 7 C6 9 6 9 2.375 9.125 C1.26125 9.08375 0.1475 9.0425 -1 9 C1 8 3 7 5 6 C5.65213292 3.97536745 5.65213292 3.97536745 6 2 C4.02 2 2.04 2 0 2 C0 1.34 0 0.68 0 0 Z " fill="#080702" transform="translate(202,183)"/>
<path d="M0 0 C0.66 0 1.32 0 2 0 C2 5.94 2 11.88 2 18 C1.34 18 0.68 18 0 18 C-0.83288874 11.74692761 -1.03863773 6.23182639 0 0 Z " fill="#000000" transform="translate(476,174)"/>
<path d="M0 0 C0.66 0 1.32 0 2 0 C2 5.94 2 11.88 2 18 C1.34 18 0.68 18 0 18 C-0.83288874 11.74692761 -1.03863773 6.23182639 0 0 Z " fill="#000000" transform="translate(250,174)"/>
<path d="M0 0 C0.33 0.99 0.66 1.98 1 3 C0.67 3.66 0.34 4.32 0 5 C-0.28143104 9.22146566 0.19901879 12.17291493 2 16 C-1.875 14.25 -1.875 14.25 -3 12 C-3.46601942 4.77669903 -3.46601942 4.77669903 -1.5 1.5 C-1.005 1.005 -0.51 0.51 0 0 Z " fill="#090803" transform="translate(485,175)"/>
<path d="M0 0 C1.875 0.1875 1.875 0.1875 4 1 C5.5225431 3.68257593 6.12235992 5.24544717 5.625 8.3125 C5.41875 8.869375 5.2125 9.42625 5 10 C3.515 7.03 3.515 7.03 2 4 C0.02 4.99 0.02 4.99 -2 6 C-1.34 4.02 -0.68 2.04 0 0 Z " fill="#151106" transform="translate(414,174)"/>
<path d="M0 0 C1.46015291 0.28241641 2.91809793 0.57626614 4.375 0.875 C5.18710938 1.03742187 5.99921875 1.19984375 6.8359375 1.3671875 C9 2 9 2 11 4 C4.25 6.125 4.25 6.125 2 5 C1.27840576 3.35636866 0.60648579 1.68949614 0 0 Z " fill="#41361D" transform="translate(123,39)"/>
<path d="M0 0 C0.66 0 1.32 0 2 0 C2.66 2.64 3.32 5.28 4 8 C2.02 8 0.04 8 -2 8 C-1.34 5.36 -0.68 2.72 0 0 Z " fill="#DCB335" transform="translate(343,177)"/>
<path d="M0 0 C0.66 0 1.32 0 2 0 C2.66 2.64 3.32 5.28 4 8 C2.02 8 0.04 8 -2 8 C-1.34 5.36 -0.68 2.72 0 0 Z " fill="#DCB335" transform="translate(139,177)"/>
<path d="M0 0 C0.99 0 1.98 0 3 0 C3.33 0.99 3.66 1.98 4 3 C7.50294871 4.71567661 7.50294871 4.71567661 11 6 C11 6.33 11 6.66 11 7 C7.18634321 7.35475877 5.41557542 7.2619932 2.125 5.1875 C0 3 0 3 0 0 Z " fill="#29220C" transform="translate(521,186)"/>
<path d="M0 0 C0.66 0 1.32 0 2 0 C4.03435531 3.72965139 5 5.66905042 5 10 C4.34 10 3.68 10 3 10 C2.7525 9.030625 2.505 8.06125 2.25 7.0625 C1.63125 5.5465625 1.63125 5.5465625 1 4 C-1.03243548 3.03122943 -1.03243548 3.03122943 -3 3 C-2.01 3 -1.02 3 0 3 C0 2.01 0 1.02 0 0 Z " fill="#100D04" transform="translate(143,182)"/>
<path d="M0 0 C2.76223278 2.76223278 2.57856291 5.20706617 3 9 C1.35 9 -0.3 9 -2 9 C-1.34 6.03 -0.68 3.06 0 0 Z " fill="#E1B636" transform="translate(415,176)"/>
<path d="M0 0 C2.76223278 2.76223278 2.57856291 5.20706617 3 9 C1.35 9 -0.3 9 -2 9 C-1.34 6.03 -0.68 3.06 0 0 Z " fill="#E1B636" transform="translate(100,176)"/>
<path d="M0 0 C1.1875 3.0625 1.1875 3.0625 2 6 C1.01 6 0.02 6 -1 6 C-1.165 5.360625 -1.33 4.72125 -1.5 4.0625 C-2.781786 1.83880759 -2.781786 1.83880759 -4.9140625 1.51171875 C-6.93575155 1.2724022 -8.96841939 1.13106972 -11 1 C-11 0.67 -11 0.34 -11 0 C-3.375 -1.125 -3.375 -1.125 0 0 Z " fill="#221C0A" transform="translate(351,186)"/>
<path d="M0 0 C3.39417765 3.12621626 5.6062718 5.56541027 7 10 C5.1875 9.8125 5.1875 9.8125 3 9 C0.46629412 5.65188866 0 4.29875783 0 0 Z " fill="#231D09" transform="translate(436,183)"/>
<path d="M0 0 C3.39417765 3.12621626 5.6062718 5.56541027 7 10 C5.1875 9.8125 5.1875 9.8125 3 9 C0.46629412 5.65188866 0 4.29875783 0 0 Z " fill="#231D09" transform="translate(310,183)"/>
<path d="M0 0 C3.85478218 -0.35858439 5.57759458 -0.2754818 8.875 1.875 C9.57625 2.57625 10.2775 3.2775 11 4 C11 4.66 11 5.32 11 6 C10.01 6 9.02 6 8 6 C7.34 5.01 6.68 4.02 6 3 C2.93443402 2.26656572 2.93443402 2.26656572 0 2 C0 1.34 0 0.68 0 0 Z " fill="#261F0B" transform="translate(199,173)"/>
<path d="M0 0 C-1.65 0.33 -3.3 0.66 -5 1 C-5.33 2.32 -5.66 3.64 -6 5 C-7.32 5.33 -8.64 5.66 -10 6 C-9.67 4.35 -9.34 2.7 -9 1 C-3.375 -1.125 -3.375 -1.125 0 0 Z " fill="#221E1E" transform="translate(90,62)"/>
<path d="M0 0 C2.18975773 3.28463659 2.99806563 6.20696275 4 10 C3.01 10.33 2.02 10.66 1 11 C0.63743142 9.5437328 0.28520207 8.08488815 -0.0625 6.625 C-0.35833984 5.40683594 -0.35833984 5.40683594 -0.66015625 4.1640625 C-1 2 -1 2 0 0 Z " fill="#352B0E" transform="translate(117,180)"/>
<path d="M0 0 C0.66 0 1.32 0 2 0 C2.625 2.875 2.625 2.875 3 6 C2.34 6.66 1.68 7.32 1 8 C0.01 8 -0.98 8 -2 8 C-2 7.34 -2 6.68 -2 6 C-1.34 6 -0.68 6 0 6 C-0.2784375 4.7934375 -0.2784375 4.7934375 -0.5625 3.5625 C-0.706875 2.716875 -0.85125 1.87125 -1 1 C-0.67 0.67 -0.34 0.34 0 0 Z " fill="#211B0A" transform="translate(439,175)"/>
<path d="M0 0 C0.66 0 1.32 0 2 0 C2.625 2.875 2.625 2.875 3 6 C2.34 6.66 1.68 7.32 1 8 C0.01 8 -0.98 8 -2 8 C-2 7.34 -2 6.68 -2 6 C-1.34 6 -0.68 6 0 6 C-0.2784375 4.7934375 -0.2784375 4.7934375 -0.5625 3.5625 C-0.706875 2.716875 -0.85125 1.87125 -1 1 C-0.67 0.67 -0.34 0.34 0 0 Z " fill="#211B0A" transform="translate(313,175)"/>
<path d="M0 0 C0 0.66 0 1.32 0 2 C-4.455 2.495 -4.455 2.495 -9 3 C-9 2.01 -9 1.02 -9 0 C-5.93109813 -1.53445094 -3.29905734 -0.54984289 0 0 Z " fill="#31280D" transform="translate(495,174)"/>
<path d="M0 0 C0.99 0.33 1.98 0.66 3 1 C2.34 3.97 1.68 6.94 1 10 C0.01 9.67 -0.98 9.34 -2 9 C-1.34 6.03 -0.68 3.06 0 0 Z " fill="#392F10" transform="translate(391,178)"/>
<path d="M0 0 C-8.261959 4.59225513 -8.261959 4.59225513 -13 4 C-9.29722041 0.29722041 -5.05922513 -1.66040649 0 0 Z " fill="#4E411E" transform="translate(125,55)"/>
<path d="M0 0 C0.99 0 1.98 0 3 0 C4.125 3.75 4.125 3.75 3 6 C2.01 6 1.02 6 0 6 C-0.38218767 4.34385343 -0.71395102 2.67542976 -1 1 C-0.67 0.67 -0.34 0.34 0 0 Z " fill="#0D0A04" transform="translate(387,186)"/>
<path d="M0 0 C0.99 0 1.98 0 3 0 C3.1953125 6.0546875 3.1953125 6.0546875 3 8 C2.34 8.66 1.68 9.32 1 10 C1.020625 9.0925 1.04125 8.185 1.0625 7.25 C1.0110245 4.57327412 0.7784983 2.53011948 0 0 Z " fill="#060501" transform="translate(126,174)"/>
<path d="M0 0 C3 1 3 1 4 3 C4.039992 4.99960012 4.04346799 7.00047242 4 9 C1.59078295 6.59078295 0.46187844 4.05665491 -1 1 C-0.67 0.67 -0.34 0.34 0 0 Z " fill="#171308" transform="translate(495,175)"/>
<path d="M0 0 C2.875 -0.125 2.875 -0.125 6 0 C6.66 0.66 7.32 1.32 8 2 C7 3 7 3 3.4375 3.0625 C2.303125 3.041875 1.16875 3.02125 0 3 C0 2.01 0 1.02 0 0 Z " fill="#2B251D" transform="translate(156,56)"/>
<path d="M0 0 C0.33 0 0.66 0 1 0 C0.67 2.97 0.34 5.94 0 9 C-0.99 9.33 -1.98 9.66 -3 10 C-2.21302675 6.58978257 -1.12880057 3.31114834 0 0 Z " fill="#171307" transform="translate(402,183)"/>
<path d="M0 0 C2 3 2 3 4 6 C6.05003955 7.19232613 6.05003955 7.19232613 8 8 C5.125 8.125 5.125 8.125 2 8 C0 6 0 6 -0.125 2.875 C-0.08375 1.92625 -0.0425 0.9775 0 0 Z " fill="#030300" transform="translate(504,184)"/>
<path d="M0 0 C1.98 0.495 1.98 0.495 4 1 C4 2.32 4 3.64 4 5 C2.35 4.67 0.7 4.34 -1 4 C-0.67 2.68 -0.34 1.36 0 0 Z " fill="#161207" transform="translate(393,174)"/>
<path d="M0 0 C1.24921469 2.49842937 0.92338287 3.75550804 0.5625 6.5 C0.14050645 9.74102432 0.14050645 9.74102432 0 13 C-0.99 13 -1.98 13 -3 13 C-2.69240822 11.02006459 -2.3787932 9.04106401 -2.0625 7.0625 C-1.88847656 5.96035156 -1.71445313 4.85820313 -1.53515625 3.72265625 C-1 1 -1 1 0 0 Z " fill="#8C7223" transform="translate(69,104)"/>
<path d="M0 0 C-0.66 0 -1.32 0 -2 0 C-2 0.66 -2 1.32 -2 2 C-4.64 2.33 -7.28 2.66 -10 3 C-6.81859267 -0.48439851 -4.56758339 -1.41752588 0 0 Z " fill="#5E4D1F" transform="translate(108,43)"/>
<path d="M0 0 C1.98 0 3.96 0 6 0 C5.01 0.33 4.02 0.66 3 1 C3 1.66 3 2.32 3 3 C1.35 3.33 -0.3 3.66 -2 4 C-1.34 2.68 -0.68 1.36 0 0 Z " fill="#937724" transform="translate(103,73)"/>
</svg>
